HIERARCHY
ROOT Hips
{
	OFFSET 0.000000 0.000000 0.000000
	CHANNELS 6 Xposition Yposition Zposition Zrotation Yrotation Xrotation 
	JOINT LHipJoint
	{
		OFFSET 0.000000 0.000000 0.000000
		CHANNELS 3 Zrotation Yrotation Xrotation
		JOINT LeftUpLeg
		{
			OFFSET 1.363060 -1.794630 0.839290
			CHANNELS 3 Zrotation Yrotation Xrotation
			JOINT LeftLeg
			{
				OFFSET 2.448110 -6.726130 0.000000
				CHANNELS 3 Zrotation Yrotation Xrotation
				JOINT LeftFoot
				{
					OFFSET 2.562200 -7.039590 0.000000
					CHANNELS 3 Zrotation Yrotation Xrotation
					JOINT LeftToeBase
					{
						OFFSET 0.157640 -0.433110 2.322550
						CHANNELS 3 Zrotation Yrotation Xrotation
						End Site
						{
							OFFSET 0.000000 0.000000 0.000000
						}
					}
				}
			}
		}
	}
	JOINT RHipJoint
	{
		OFFSET 0.000000 0.000000 0.000000
		CHANNELS 3 Zrotation Yrotation Xrotation
		JOINT RightUpLeg
		{
			OFFSET -1.305520 -1.794630 0.839290
			CHANNELS 3 Zrotation Yrotation Xrotation
			JOINT RightLeg
			{
				OFFSET -2.542530 -6.985550 0.000000
				CHANNELS 3 Zrotation Yrotation Xrotation
				JOINT RightFoot
				{
					OFFSET -2.568260 -7.056230 0.000000
					CHANNELS 3 Zrotation Yrotation Xrotation
					JOINT RightToeBase
					{
						OFFSET -0.164730 -0.452590 2.363150
						CHANNELS 3 Zrotation Yrotation Xrotation
						End Site
						{
							OFFSET 0.000000 0.000000 0.000000
						}
					}
				}
			}
		}
	}
	JOINT LowerBack
	{
		OFFSET 0.000000 0.000000 0.000000
		CHANNELS 3 Zrotation Yrotation Xrotation
		JOINT Spine
		{
			OFFSET 0.028270 2.035590 -0.193380
			CHANNELS 3 Zrotation Yrotation Xrotation
			JOINT Spine1
			{
				OFFSET 0.056720 2.048850 -0.042750
				CHANNELS 3 Zrotation Yrotation Xrotation
				JOINT Neck
				{
					OFFSET 0.000000 0.000000 0.000000
					CHANNELS 3 Zrotation Yrotation Xrotation
					JOINT Neck1
					{
						OFFSET -0.054170 1.746240 0.172020
						CHANNELS 3 Zrotation Yrotation Xrotation
						JOINT Head
						{
							OFFSET 0.104070 1.761360 -0.123970
							CHANNELS 3 Zrotation Yrotation Xrotation
							End Site
							{
								OFFSET 0.000000 0.000000 0.000000
							}
						}
					}
				}
				JOINT LeftShoulder
				{
					OFFSET 0.000000 0.000000 0.000000
					CHANNELS 3 Zrotation Yrotation Xrotation
					JOINT LeftArm
					{
						OFFSET 3.362410 1.200890 -0.311210
						CHANNELS 3 Zrotation Yrotation Xrotation
						JOINT LeftForeArm
						{
							OFFSET 4.983000 -0.000000 -0.000000
							CHANNELS 3 Zrotation Yrotation Xrotation
							JOINT LeftHand
							{
								OFFSET 3.483560 -0.000000 -0.000000
								CHANNELS 3 Zrotation Yrotation Xrotation
								JOINT LeftFingerBase
								{
									OFFSET 0.000000 0.000000 0.000000
									CHANNELS 3 Zrotation Yrotation Xrotation
									JOINT LeftHandIndex1
									{
										OFFSET 0.715260 -0.000000 -0.000000
										CHANNELS 3 Zrotation Yrotation Xrotation
										End Site
										{
											OFFSET 0.000000 0.000000 0.000000
										}
									}
								}
								JOINT LThumb
								{
									OFFSET 0.000000 0.000000 0.000000
									CHANNELS 3 Zrotation Yrotation Xrotation
									End Site
									{
										OFFSET 0.000000 0.000000 0.000000
									}
								}
							}
						}
					}
				}
				JOINT RightShoulder
				{
					OFFSET 0.000000 0.000000 0.000000
					CHANNELS 3 Zrotation Yrotation Xrotation
					JOINT RightArm
					{
						OFFSET -3.136600 1.374050 -0.404650
						CHANNELS 3 Zrotation Yrotation Xrotation
						JOINT RightForeArm
						{
							OFFSET -5.241900 -0.000000 -0.000000
							CHANNELS 3 Zrotation Yrotation Xrotation
							JOINT RightHand
							{
								OFFSET -3.444170 -0.000000 -0.000000
								CHANNELS 3 Zrotation Yrotation Xrotation
								JOINT RightFingerBase
								{
									OFFSET 0.000000 0.000000 0.000000
									CHANNELS 3 Zrotation Yrotation Xrotation
									JOINT RightHandIndex1
									{
										OFFSET -0.622530 -0.000000 -0.000000
										CHANNELS 3 Zrotation Yrotation Xrotation
										End Site
										{
											OFFSET 0.000000 0.000000 0.000000
										}
									}
								}
								JOINT RThumb
								{
									OFFSET 0.000000 0.000000 0.000000
									CHANNELS 3 Zrotation Yrotation Xrotation
									End Site
									{
										OFFSET 0.000000 0.000000 0.000000
									}
								}
							}
						}
					}
				}
			}
		}
	}
}
MOTION
Frames: 12
Frame Time: 0.033333
-1.685491 17.251891 23.786005 -0.629766 -14.186232 13.272936 -6.255307 5.485996 10.311679 -10.652639 -22.356778 -13.643406 33.190805 -26.157230 -30.433778 -12.455867 0.949095 76.585921 0.000000 0.000000 0.000000 8.832039 -12.829120 -3.266519 17.562367 20.299866 -17.293951 -12.929340 -11.916194 70.609197 11.256834 -4.858626 -16.187230 0.000000 0.000000 0.000000 -3.970556 3.716273 3.940983 -1.484867 2.790647 1.717067 6.579214 2.635493 -7.283650 6.155885 0.439456 -7.894576 1.743548 0.504294 -6.867474 0.000000 0.000000 0.000000 -3.082882 9.518349 17.924013 -80.725164 -4.800873 -22.421719 -145.577189 -74.151491 176.803792 16.915111 -10.881272 -1.700152 17.492559 -10.515762 -0.000000 0.000000 0.000000 0.000000 0.000000 0.000000 0.000000 4.176796 -13.201615 5.564639 51.690221 7.108817 22.292641 24.867942 72.073366 0.358139 0.372503 9.539832 0.178016 0.367252 9.544861 0.000000 0.000000 0.000000 0.000000 0.000000 0.000000 0.000000 
-1.706019 17.273032 23.977498 0.018098 -13.495454 12.715116 -4.340964 5.099418 9.118233 -14.529322 -22.397882 -11.054918 32.286338 -26.321104 -28.683488 -11.496344 -0.303409 72.922649 0.000000 0.000000 0.000000 8.070690 -11.504209 -3.630098 16.871646 18.570067 -15.637616 -11.866156 -13.314042 69.289249 11.199251 -5.383195 -15.429433 0.000000 0.000000 0.000000 -4.509343 3.533520 4.792506 -1.533220 2.550326 1.094843 6.226219 2.370610 -6.560669 6.164795 0.567448 -7.669707 2.333268 0.607528 -7.298058 0.000000 0.000000 0.000000 -2.434109 9.020954 18.022134 -81.132925 -4.697292 -21.426693 -145.714790 -75.054377 176.715234 17.711475 -11.659116 -1.752173 18.331567 -11.263731 -0.000000 0.000000 0.000000 0.000000 0.000000 0.000000 0.000000 3.063289 -13.339016 5.323150 53.613811 7.709180 21.321386 27.369297 70.664392 0.330003 0.535959 9.247877 0.164082 0.531152 9.252577 0.000000 0.000000 0.000000 0.000000 0.000000 0.000000 0.000000 
-1.724780 17.296777 24.167097 0.605788 -12.782574 12.170816 -2.727347 4.781043 7.990158 -17.888174 -22.189914 -8.774763 31.014934 -26.345340 -26.792986 -10.378495 -1.311091 69.264687 0.000000 0.000000 0.000000 7.454886 -10.185086 -3.906518 16.037597 16.819879 -14.018322 -10.709728 -14.657976 67.820772 11.067658 -5.812803 -14.631888 0.000000 0.000000 0.000000 -4.953620 3.337559 5.562439 -1.531515 2.297302 0.653836 5.834310 2.115668 -6.033557 6.215118 0.671650 -7.478806 2.813256 0.692272 -7.648367 0.000000 0.000000 0.000000 -1.921372 8.608627 18.095505 -81.452826 -4.467725 -20.270805 -145.893609 -76.088878 176.633883 18.518527 -12.503467 -1.801476 19.185891 -12.074227 0.000000 0.000000 0.000000 0.000000 0.000000 0.000000 0.000000 2.007325 -13.543344 5.079767 55.380428 8.297603 20.309397 29.962401 69.144538 0.296841 0.673311 8.838377 0.147646 0.668893 8.842645 0.000000 0.000000 0.000000 0.000000 0.000000 0.000000 0.000000 
-1.740561 17.322609 24.354076 1.132059 -12.078875 11.676002 -1.424745 4.550831 6.961637 -20.687705 -21.810897 -6.875803 29.425396 -26.207270 -24.808175 -9.191572 -2.068726 65.682926 0.000000 0.000000 0.000000 6.997718 -8.897411 -4.086461 15.060123 15.101295 -12.488769 -9.479893 -15.912294 66.240171 10.872222 -6.144566 -13.804300 0.000000 0.000000 0.000000 -5.311587 3.104392 6.230936 -1.468501 2.017282 0.267126 5.386194 1.858699 -5.582520 6.272316 0.662978 -7.263146 2.896133 0.673412 -7.175283 0.000000 0.000000 0.000000 -1.546031 8.295419 18.145604 -81.685728 -4.123461 -19.005701 -146.096138 -77.264518 176.556793 19.339692 -13.412799 -1.849889 20.060182 -12.944653 0.000000 0.000000 0.000000 0.000000 0.000000 0.000000 0.000000 1.023002 -13.726719 4.855831 57.005473 8.896283 19.228921 32.568589 67.494681 0.258098 0.762998 8.298733 0.128421 0.758811 8.302469 0.000000 0.000000 0.000000 0.000000 0.000000 0.000000 0.000000 
-1.753357 17.350008 24.537756 1.597730 -11.407113 11.264456 -0.433988 4.411890 6.070605 -22.910843 -21.354493 -5.409312 27.605272 -25.902401 -22.760030 -8.017431 -2.615742 62.196120 0.000000 0.000000 0.000000 6.703029 -7.675984 -4.156683 13.945915 13.466728 -11.106204 -8.187534 -17.053226 64.586450 10.625976 -6.378579 -12.969028 0.000000 0.000000 0.000000 -5.588377 2.839002 6.766289 -1.357483 1.715775 -0.082469 4.886228 1.603733 -5.207124 6.331489 0.547506 -7.012300 2.605628 0.559464 -5.895768 0.000000 0.000000 0.000000 -1.309139 8.081433 18.174203 -81.830091 -3.661644 -17.626641 -146.334310 -78.593785 176.485320 20.168505 -14.390435 -1.897021 20.948934 -13.877552 0.000000 0.000000 0.000000 0.000000 0.000000 0.000000 0.000000 0.123817 -13.890540 4.647521 58.479617 9.508975 18.089725 35.155632 65.705906 0.214775 0.793989 7.614920 0.106900 0.789930 7.618059 0.000000 0.000000 0.000000 0.000000 0.000000 0.000000 0.000000 
-1.762687 17.378615 24.717628 2.158459 -10.812127 10.714734 0.613930 4.256469 4.801671 -25.499599 -20.394518 -3.474218 25.672356 -25.360216 -20.861092 -6.844699 -2.640122 59.526988 0.000000 0.000000 0.000000 6.490502 -6.446230 -3.963845 12.429975 11.736483 -9.736983 -6.607323 -18.175860 62.622408 10.090806 -6.163669 -12.421227 0.000000 0.000000 0.000000 -5.930696 2.598265 7.347478 -1.253680 1.432629 -0.272226 4.345783 1.378880 -5.037565 6.465035 0.473621 -6.763243 2.437104 0.486385 -4.999585 0.000000 0.000000 0.000000 -1.163476 7.942245 18.194928 -81.890341 -3.093906 -16.040192 -146.699313 -80.102170 176.427488 20.997351 -15.463256 -1.939233 21.846099 -14.898600 0.000000 0.000000 0.000000 0.000000 0.000000 0.000000 0.000000 -0.782239 -14.185126 4.380381 59.885531 10.194322 16.642718 38.195138 63.249197 0.170157 0.809855 6.856953 0.084716 0.805918 6.859523 0.000000 0.000000 0.000000 0.000000 0.000000 0.000000 0.000000 
-1.767921 17.408026 24.893695 2.803990 -10.348962 10.047529 1.688597 4.067687 3.153039 -28.316882 -18.910389 -1.115587 23.730270 -24.599562 -19.180216 -5.723064 -2.145112 57.815147 0.000000 0.000000 0.000000 6.396251 -5.240767 -3.458633 10.500666 9.981316 -8.426822 -4.726939 -19.223954 60.362132 9.293246 -5.519340 -12.165115 0.000000 0.000000 0.000000 -6.343317 2.393933 7.949927 -1.162316 1.181234 -0.309430 3.767687 1.197751 -5.087880 6.682606 0.439434 -6.497347 2.383220 0.448736 -4.480695 0.000000 0.000000 0.000000 -1.114649 7.891614 18.212100 -81.860181 -2.408033 -14.251667 -147.216662 -81.802381 176.387169 21.815786 -16.640497 -1.975035 22.742752 -16.015964 0.000000 0.000000 0.000000 0.000000 0.000000 0.000000 0.000000 -1.693058 -14.620426 4.034098 61.188674 10.989064 14.787413 41.631791 59.877694 0.123497 0.783583 5.992177 0.061494 0.779778 5.994199 0.000000 0.000000 0.000000 0.000000 0.000000 0.000000 0.000000 
-1.769523 17.437909 25.065468 3.286281 -9.919173 9.543932 2.363481 3.988753 1.937719 -30.167837 -17.658970 0.458153 21.765671 -23.756114 -17.501064 -4.734674 -1.694872 56.004426 0.000000 0.000000 0.000000 6.394673 -4.209512 -3.071459 8.975276 8.511249 -7.192140 -3.216123 -19.990876 58.389920 8.769955 -5.318095 -11.430149 0.000000 0.000000 0.000000 -6.581175 2.164502 8.372450 -1.086349 0.913787 -0.183855 3.045108 1.015287 -5.442597 7.115348 0.462000 -6.220160 2.545962 0.465609 -4.518321 0.000000 0.000000 0.000000 -1.056166 8.047185 18.274445 -81.713146 -1.702389 -12.955236 -147.485170 -83.058865 176.559103 21.916458 -17.331651 -1.885575 22.841883 -16.703670 0.000000 0.000000 0.000000 0.000000 0.000000 0.000000 0.000000 -2.967528 -15.412329 3.387578 62.654655 12.417073 11.373484 46.355556 52.828526 0.065132 0.720125 5.029915 0.032399 0.716267 5.031404 0.000000 0.000000 0.000000 0.000000 0.000000 0.000000 0.000000 
-1.767781 17.468030 25.233154 3.607889 -9.498739 9.206767 2.675735 4.013525 1.193058 -31.177866 -16.734639 1.286247 19.831459 -22.864733 -15.814891 -3.883048 -1.381592 53.947535 0.000000 0.000000 0.000000 6.437018 -3.332170 -2.856911 7.890222 7.297166 -6.030097 -2.116662 -20.531538 56.748327 8.506948 -5.549914 -10.237547 0.000000 0.000000 0.000000 -6.637315 1.896039 8.628301 -1.041454 0.615036 0.111129 2.191416 0.816355 -6.339821 7.782361 0.545495 -5.777368 2.937081 0.541306 -5.132926 0.000000 0.000000 0.000000 -0.975788 8.431338 18.506733 -81.435318 -0.870517 -12.230756 -147.401942 -83.743646 176.984446 21.091018 -17.364901 -1.645965 21.911397 -16.807920 0.000000 0.000000 0.000000 0.000000 0.000000 0.000000 0.000000 -4.621798 -16.772363 1.964347 64.019616 14.909907 6.570711 51.021248 39.902553 0.001755 0.489478 3.726668 0.000797 0.486225 3.727632 0.000000 0.000000 0.000000 0.000000 0.000000 0.000000 0.000000 
-1.764272 17.497531 25.395970 3.889021 -9.160496 8.934430 2.886676 4.082348 0.526174 -31.954419 -15.850954 1.917394 17.960138 -21.902959 -14.177824 -3.119223 -1.017201 52.055101 0.000000 0.000000 0.000000 6.511526 -2.627243 -2.601456 6.936123 6.287866 -5.059093 -1.239880 -20.913951 55.311810 8.273597 -5.847187 -8.906522 0.000000 0.000000 0.000000 -6.668680 1.706617 8.818810 -1.022169 0.386697 0.383191 1.478075 0.675040 -7.627555 8.390370 0.673947 -5.013242 3.389381 0.646978 -6.065241 0.000000 0.000000 0.000000 -0.936602 8.631408 18.950391 -81.195865 0.374979 -10.997468 -147.519212 -84.976375 177.714393 19.300487 -17.159458 -1.239492 19.938947 -16.727720 0.000000 0.000000 0.000000 0.000000 0.000000 0.000000 0.000000 -6.015148 -18.323197 -0.224030 64.963210 17.724234 3.563253 53.357930 25.675818 -0.021091 0.218520 2.356274 -0.010569 0.216889 2.356836 0.000000 0.000000 0.000000 0.000000 0.000000 0.000000 0.000000 
-1.759397 17.526300 25.554098 4.135296 -8.884922 8.718699 2.998157 4.180633 -0.049475 -32.515065 -15.032893 2.364686 16.179521 -20.897491 -12.592711 -2.441973 -0.634809 50.299084 0.000000 0.000000 0.000000 6.601610 -2.097086 -2.309556 6.119292 5.471255 -4.286856 -0.593183 -21.167699 54.095677 8.066376 -6.207727 -7.449005 0.000000 0.000000 0.000000 -6.657430 1.633188 8.921136 -1.014334 0.267468 0.618714 0.922825 0.623036 -9.204973 8.862642 0.853009 -3.952371 3.895392 0.790310 -7.415445 0.000000 0.000000 0.000000 -0.956576 8.528355 19.617432 -80.990018 2.015969 -9.320380 -147.840280 -86.646565 178.876970 15.205660 -15.773218 -0.603059 15.546838 -15.547795 0.000000 0.000000 0.000000 0.000000 0.000000 0.000000 0.000000 -7.035041 -19.921221 -3.038158 65.953538 20.636414 2.481815 54.258879 11.258226 -0.014660 0.071096 1.129827 -0.007333 0.070708 1.130090 -0.000000 0.000000 0.000000 0.000000 0.000000 0.000000 0.000000 
-1.753710 17.554304 25.708073 4.364609 -8.682056 8.572700 3.007401 4.305854 -0.540317 -32.888765 -14.295369 2.631149 14.506465 -19.861619 -11.055041 -1.849975 -0.250927 48.652894 0.000000 0.000000 0.000000 6.742494 -1.684863 -1.920852 5.259134 4.787467 -3.716870 0.043556 -21.352364 52.936466 7.808964 -6.467930 -6.087001 0.000000 0.000000 0.000000 -6.627416 1.595928 8.898179 -0.971557 0.207843 0.742089 0.484992 0.607999 -10.758981 9.158116 0.934823 -2.710769 4.055633 0.850387 -8.130214 0.000000 0.000000 0.000000 -1.155125 8.207345 20.361302 -80.776365 3.476096 -8.065001 -148.181358 -88.046360 179.463036 12.532469 -14.660126 -0.289985 12.736323 -14.526897 0.000000 0.000000 0.000000 0.000000 0.000000 0.000000 0.000000 -7.574173 -21.202372 -5.909900 67.248287 23.325332 2.528554 54.502657 -1.675132 0.017959 -0.110511 -0.586920 0.008981 -0.110595 -0.587013 -0.000000 0.000000 0.000000 0.000000 0.000000 0.000000 0.000000 
